<?xml version="1.0" encoding="UTF-8"?>
<svg width="14px" height="14px" viewBox="0 0 14 14" version="1.1" xmlns="http://www.w3.org/2000/svg" xmlns:xlink="http://www.w3.org/1999/xlink">
    <!-- Generator: Sketch 52.1 (67048) - http://www.bohemiancoding.com/sketch -->
    <title>loading</title>
    <desc>Created with Sketch.</desc>
    <g id="Page-1" stroke="none" stroke-width="1" fill="none" fill-rule="evenodd">
        <g id="初始化模型2" transform="translate(-690.000000, -489.000000)">
            <g id="模态/Modal-dialog-/-Size-/-Large" transform="translate(589.000000, 326.000000)">
                <g id="导航/树/组织树" transform="translate(39.000000, 80.000000)">
                    <g id="文字" transform="translate(25.000000, 0.000000)">
                        <g id="loading" transform="translate(36.000000, 82.000000)">
                            <rect id="矩形" fill="#000000" opacity="0" x="0" y="0" width="16" height="16"></rect>
                            <path d="M15,8.23309761 C14.9820035,7.25850341 14.7770432,6.28640814 14.3991163,5.39777814 C14.0221893,4.50864833 13.4752952,3.70298378 12.8039251,3.03726096 C12.133055,2.37103835 11.3372091,1.84425768 10.4758758,1.4969023 C9.61504247,1.14804756 8.68922169,0.981616855 7.77489869,1.00160853 C6.86057569,1.02060063 5.94975202,1.2260151 5.11741316,1.60485737 C4.28407448,1.98220025 3.52922061,2.52997218 2.90534138,3.20219229 C2.28146216,3.87391262 1.78855759,4.67058092 1.46362049,5.53222216 C1.13718367,6.39336362 0.981713768,7.31847843 1.00170991,8.23309761 C1.01970642,9.1482166 1.21266906,10.0578379 1.56760036,10.8899914 C1.92203174,11.7221449 2.43543235,12.4763309 3.06531042,13.0990716 C3.69468858,13.7228119 4.44054418,14.2146071 5.24688809,14.5384723 C6.05273208,14.8638368 6.91856446,15.0182725 7.77489869,14.9982809 C8.63173282,14.9792888 9.4815683,14.7858693 10.2594177,14.431017 C11.037767,14.0766646 11.7431305,13.5638781 12.3250178,12.9341403 C12.9074051,12.3054021 13.3668162,11.5602123 13.6692576,10.7555474 C13.853222,10.2677505 13.9776979,9.75846252 14.0436851,9.24217747 C14.0611817,9.24367686 14.0791783,9.24417664 14.0966749,9.24417664 C14.5955783,9.24417664 15,8.82635061 15,8.31106516 C15,8.28507597 14.9985003,8.2590868 14.9965007,8.23309761 L15,8.23309761 Z M13.5647778,10.7110659 C13.2338419,11.4867429 12.7539348,12.1894503 12.1655487,12.7692089 C11.5771626,13.3499672 10.8812973,13.8072767 10.1299428,14.1076517 C9.37858824,14.4090262 8.57374405,14.5514669 7.77489869,14.5314752 C6.97605334,14.5129829 6.18620624,14.3315585 5.46334618,13.9996966 C4.73998621,13.6693342 4.08461309,13.1910333 3.54421771,12.6042776 C3.00332241,12.0185215 2.57690497,11.3248104 2.29795897,10.5771217 C2.01751325,9.82943296 1.88553881,9.02826655 1.90453513,8.23309761 C1.92303155,7.4379287 2.09249874,6.65275561 2.40193883,5.93405484 C2.71037912,5.21535409 3.1567927,4.56412524 3.70368684,4.02684894 C4.25008106,3.48957264 4.89645593,3.06674868 5.59282111,2.78986397 C6.28918632,2.51197966 7.03404211,2.38153398 7.77489869,2.40152565 C8.51575528,2.42051775 9.24561398,2.58994721 9.91348468,2.89781901 C10.5818553,3.20469125 11.1872381,3.64850646 11.6861415,4.19178026 C12.1860448,4.73505406 12.5784688,5.37728667 12.8349191,6.06799908 C13.0923693,6.75921128 13.212846,7.49790372 13.1938496,8.23309761 L13.1968491,8.23309761 C13.1948495,8.2590868 13.1938496,8.28457619 13.1938496,8.31106516 C13.1938496,8.79236477 13.5462814,9.18819995 13.9991937,9.23867894 C13.9112108,9.7464675 13.7657389,10.2417613 13.5647778,10.7110659 Z" id="形状" fill="#007BFF" fill-rule="nonzero"></path>
                        </g>
                    </g>
                </g>
            </g>
        </g>
    </g>
</svg>