<?xml version="1.0" encoding="UTF-8"?>
<svg width="61px" height="52px" viewBox="0 0 61 52" version="1.1" xmlns="http://www.w3.org/2000/svg" xmlns:xlink="http://www.w3.org/1999/xlink">
    <!-- Generator: Sketch 52.1 (67048) - http://www.bohemiancoding.com/sketch -->
    <title>返回</title>
    <desc>Created with Sketch.</desc>
    <g id="Page-1" stroke="none" stroke-width="1" fill="none" fill-rule="evenodd">
        <g id="客商企业画像-企业基本信息" transform="translate(-1822.000000, -126.000000)" fill-rule="nonzero">
            <g id="返回" transform="translate(1815.000000, 114.000000)">
                <g id="分组-3" fill="#44D3FF">
                    <polygon id="多边形-copy" opacity="0.269438244" transform="translate(37.456973, 38.369263) rotate(30.000000) translate(-37.456973, -38.369263) " points="37.5745612 8.88559873 63.1669577 23.5255965 63.0493694 53.009261 37.3393845 67.8529277 11.746988 53.2129299 11.8645763 23.7292654"></polygon>
                    <path d="M51.1824272,15.4709302 L24.4812896,15.4709302 L11.1327172,38.3798469 L24.4812896,61.2887635 L51.1824272,61.2887635 L64.5309996,38.3798469 L51.1824272,15.4709302 Z M40.7291166,17.7641576 L49.6423785,17.7641576 L52.9030458,23.502062 L54.6055561,24.0048463 L54.7493127,24.1163028 L63.4215908,38.6186815 L55.7575684,51.7003199 L54.6779922,51.7003199 L50.2986459,59.1715786 L42.9323431,59.1715786 L42.0491414,60.1119621 L41.8669111,60.1908127 L25.2310251,60.1908127 L17.6281779,47.6075813 L17.5921532,47.4782965 L17.5921532,45.7004663 L13.6257161,38.6070579 L17.5626322,32.8258583 L16.9018823,31.0594858 L16.9214028,30.8437058 L25.2301818,16.9319819 L39.6148185,16.9319819 L39.7723354,16.9878468 L40.7291166,17.7641576 Z" id="合并形状" stroke="#44D3FF" stroke-width="0.5"></path>
                </g>
                <path d="M49.2487952,34.8527019 L45.805834,30.2416831 L34.9190503,30.2416831 L34.9190503,26.876405 L26.9450508,32.9816169 L34.9190503,39.0868288 L34.9190503,34.2532335 L42.9514595,34.2532335 L45.0168258,36.229892 L45.0168258,44.357389 L43.6369651,45.6779845 L29.2543485,45.6779845 L29.2543485,49.6895349 L45.8491389,49.6895349 L49.2487952,46.3521589 L49.2487952,34.8527019 Z" id="路径" stroke="#FFFFFF" stroke-width="0.9" fill="#FFFFFF"></path>
            </g>
        </g>
    </g>
</svg>