<?xml version="1.0" encoding="UTF-8"?>
<svg width="362px" height="61px" viewBox="0 0 362 61" version="1.1" xmlns="http://www.w3.org/2000/svg" xmlns:xlink="http://www.w3.org/1999/xlink">
    <!-- Generator: Sketch 52.1 (67048) - http://www.bohemiancoding.com/sketch -->
    <title>bg_qiyemingcheng</title>
    <desc>Created with Sketch.</desc>
    <g id="Page-1" stroke="none" stroke-width="1" fill="none" fill-rule="evenodd">
        <g id="客商风险分析" transform="translate(-780.000000, -703.000000)" fill-rule="nonzero" stroke="#44D3FF">
            <g id="bg_qiyemingcheng" transform="translate(782.000000, 703.000000)">
                <g id="Group-32">
                    <polygon id="Rectangle-43" stroke-width="1.6" fill-opacity="0.2" fill="#44D3FF" points="27.1935697 8.02631579 330.801506 8.02631579 345.214286 22.5313857 345.214286 38.4979821 330.87351 52.9736842 27.1935697 52.9736842 12.7857143 38.4979821 12.7857143 22.6431496"></polygon>
                    <polygon id="Rectangle-43-Copy" stroke-width="1.6" points="17.5879119 1.60526316 340.449047 1.60526316 358 19.2632693 358 41.7536131 340.414161 59.3947368 17.6433386 59.3947368 0 41.7609341 0 19.2782518"></polygon>
                    <path d="M30.1199594,1.60526316 L327.616306,1.60526316 M349.132022,10.3412008 L358,19.2632693 L358,41.7536131 L349.321232,50.4596653 M327.668104,59.3947368 L30.3447376,59.3947368 M8.8262656,50.5824293 L0,41.7609341 L0,19.2782518 L9.0135653,10.2210859" id="Rectangle-43-Copy-2" stroke-width="3.2"></path>
                </g>
            </g>
        </g>
    </g>
</svg>