<?xml version="1.0" encoding="UTF-8"?>
<svg width="81px" height="81px" viewBox="0 0 81 81" version="1.1" xmlns="http://www.w3.org/2000/svg" xmlns:xlink="http://www.w3.org/1999/xlink">
    <!-- Generator: Sketch 52.1 (67048) - http://www.bohemiancoding.com/sketch -->
    <title>多维度管理</title>
    <desc>Created with Sketch.</desc>
    <g id="Page-1" stroke="none" stroke-width="1" fill="none" fill-rule="evenodd">
        <g id="数据模型--01-copy-5" transform="translate(-1539.000000, -518.000000)">
            <g id="user-3-copy" transform="translate(1514.000000, 493.000000)">
                <g id="personal-info" transform="translate(25.594864, 25.413007)">
                    <g id="多维度管理">
                        <circle id="avatar" fill="#56A2FD" opacity="0.06" cx="40" cy="40" r="40"></circle>
                        <circle id="avatar" fill="#56A2FD" opacity="0.15" cx="40" cy="40" r="32"></circle>
                        <g id="Group-23" transform="translate(21.000000, 22.000000)" fill="#1E7BE2">
                            <path d="M32.7485667,22.1187551 C31.2309582,17.7817363 26.7477477,14.8927109 21.547502,14.8927109 C21.1437346,14.8927109 20.7399672,14.9135954 20.3431613,14.9484029 L19.9254709,12.999181 C21.2411957,12.477068 22.3202293,11.4676495 22.9467649,10.2006552 L29.8525799,12.6371826 C29.9570025,15.0597871 31.9619165,17.0020475 34.4123669,17.0020475 C36.9324324,17.0020475 38.9791155,14.9553645 38.9791155,12.4352989 C38.9791155,9.91523342 36.9324324,7.86855037 34.4123669,7.86855037 C32.8251433,7.86855037 31.4258804,8.68304668 30.6044226,9.91523342 L23.5176085,7.41605242 C23.3714169,4.4017199 20.8722359,2 17.8230958,2 C14.6764947,2 12.1216216,4.55487305 12.1216216,7.7014742 C12.1216216,10.6044226 14.3075348,13.013104 17.1199836,13.3542179 L17.5794431,15.4914005 C14.1613432,16.5634726 11.4602785,18.9930385 10.3464373,22.1187551 C7.16502867,23.1351351 5,25.8083538 5,28.8435708 C5,32.7420147 8.61302211,36 13.0962326,36 L30.0823096,36 C34.5655201,36 38.1785422,32.7489762 38.1019656,28.8435708 C38.0950041,25.8083538 35.9299754,23.1351351 32.7485667,22.1187551 L32.7485667,22.1187551 L32.7485667,22.1187551 Z" id="Path" opacity="0.2"></path>
                            <path d="M27.7485667,20.1187551 C26.2309582,15.7817363 21.7477477,12.8927109 16.547502,12.8927109 C16.1437346,12.8927109 15.7399672,12.9135954 15.3431613,12.9484029 L14.9254709,10.999181 C16.2411957,10.477068 17.3202293,9.46764947 17.9467649,8.2006552 L24.8525799,10.6371826 C24.9570025,13.0597871 26.9619165,15.0020475 29.4123669,15.0020475 C31.9324324,15.0020475 33.9791155,12.9553645 33.9791155,10.4352989 C33.9791155,7.91523342 31.9324324,5.86855037 29.4123669,5.86855037 C27.8251433,5.86855037 26.4258804,6.68304668 25.6044226,7.91523342 L18.5176085,5.41605242 C18.3714169,2.4017199 15.8722359,0 12.8230958,0 C9.67649468,0 7.12162162,2.55487305 7.12162162,5.7014742 C7.12162162,8.6044226 9.30753481,11.013104 12.1199836,11.3542179 L12.5794431,13.4914005 C9.16134316,14.5634726 6.46027846,16.9930385 5.34643735,20.1187551 C2.16502867,21.1351351 4.8316906e-13,23.8083538 4.8316906e-13,26.8435708 C4.8316906e-13,30.7420147 3.61302211,34 8.0962326,34 L25.0823096,34 C29.5655201,34 33.1785422,30.7489762 33.1019656,26.8435708 C33.0950041,23.8083538 30.9299754,21.1351351 27.7485667,20.1187551 L27.7485667,20.1187551 L27.7485667,20.1187551 Z M29.4123669,8.72276822 C30.3591319,8.72276822 31.1248976,9.48853399 31.1248976,10.4352989 C31.1248976,11.3820639 30.3591319,12.1478296 29.4123669,12.1478296 C28.465602,12.1478296 27.6998362,11.3820639 27.6998362,10.4352989 C27.6998362,9.48853399 28.465602,8.72276822 29.4123669,8.72276822 L29.4123669,8.72276822 L29.4123669,8.72276822 Z M9.98280098,5.7014742 C9.98280098,4.13513514 11.2567568,2.85421785 12.8300573,2.85421785 C14.4033579,2.85421785 15.6773137,4.12817363 15.6773137,5.7014742 C15.6773137,7.26781327 14.4033579,8.54873055 12.8300573,8.54873055 C11.2567568,8.54873055 9.98280098,7.27477477 9.98280098,5.7014742 L9.98280098,5.7014742 L9.98280098,5.7014742 Z M25.005733,31.1805897 L8.0962326,31.1805897 C5.20720721,31.1805897 2.81941032,29.2313677 2.81941032,26.8435708 C2.81941032,24.8943489 4.48321048,23.1609337 6.79443079,22.6527437 C7.3026208,22.5831286 7.73423423,22.1445536 7.88042588,21.6433251 C8.5,19.1719902 10.546683,17.2158067 13.1850942,16.2968878 L13.7628993,18.977068 C12.6838657,19.8124488 11.987715,21.1212121 11.987715,22.5900901 C11.987715,25.1101556 14.034398,27.1568387 16.5544636,27.1568387 C19.0745291,27.1568387 21.1212121,25.1101556 21.1212121,22.5900901 C21.1212121,20.0700246 19.0745291,18.0233415 16.5544636,18.0233415 L16.4430794,18.0233415 L15.955774,15.7469287 C16.1785422,15.7330057 16.4013104,15.7260442 16.6310401,15.7260442 C20.7522523,15.7260442 24.4348894,18.1834562 25.2285012,21.6502867 C25.3746929,22.1584767 25.8063063,22.520475 26.3144963,22.6597052 C28.7022932,23.1678952 30.2895168,24.9013104 30.2895168,26.8505324 C30.2825553,29.2244062 27.8947584,31.1805897 25.005733,31.1805897 L25.005733,31.1805897 L25.005733,31.1805897 Z M16.547502,20.8636364 C17.494267,20.8636364 18.2600328,21.6294021 18.2600328,22.5761671 C18.2600328,23.522932 17.494267,24.2886978 16.547502,24.2886978 C15.6007371,24.2886978 14.8349713,23.522932 14.8349713,22.5761671 C14.8349713,21.6294021 15.6007371,20.8636364 16.547502,20.8636364 L16.547502,20.8636364 L16.547502,20.8636364 Z" id="cloud-computing-32"></path>
                        </g>
                    </g>
                </g>
            </g>
        </g>
    </g>
</svg>