<?xml version="1.0" encoding="UTF-8"?>
<svg width="75px" height="93px" viewBox="0 0 75 93" version="1.1" xmlns="http://www.w3.org/2000/svg" xmlns:xlink="http://www.w3.org/1999/xlink">
    <!-- Generator: Sketch 52.1 (67048) - http://www.bohemiancoding.com/sketch -->
    <title>完成</title>
    <desc>Created with Sketch.</desc>
    <g id="Page-1" stroke="none" stroke-width="1" fill="none" fill-rule="evenodd">
        <g id="数据分发-copy" transform="translate(-1471.000000, -595.000000)">
            <g id="完成" transform="translate(1471.000000, 595.000000)">
                <g id="Group-20">
                    <ellipse id="Oval" fill="#CBDBE4" cx="37.5" cy="40.5" rx="37.5" ry="38.5"></ellipse>
                    <path d="M11.2142857,2.5 L11.2142857,79.5 L64.7597403,79.5 L64.7597403,2.5 L11.2142857,2.5 Z" id="Rectangle" stroke="#BFD8F5" fill="#F0F0F0"></path>
                    <path d="M8.29220779,0.5 L8.29220779,77.5 L61.8376623,77.5 L61.8376623,0.5 L8.29220779,0.5 Z" id="Rectangle" stroke="#BFD8F5" fill="#FFFFFF"></path>
                    <polygon id="Rectangle-3" fill="#BFD8F5" opacity="0.5" points="17.5324675 63 51.0654994 63 51.0654994 66 17.5324675 66"></polygon>
                    <polygon id="Rectangle-3" fill="#BFD8F5" opacity="0.5" points="17.5324675 70 51.0654994 70 51.0654994 73 17.5324675 73"></polygon>
                    <ellipse id="Oval-5" fill="#6DD6C9" cx="34.5779221" cy="80.5" rx="12.1753247" ry="12.5"></ellipse>
                </g>
                <g id="Page-1" transform="translate(29.000000, 45.000000)" fill="#BFD8F5">
                    <path d="M6.59994,-6e-05 L6.59994,3.04554 C6.98274,3.12354 7.33734,3.27714 7.65234,3.48714 L9.79434,1.33374 C8.90574,0.60174 7.80534,0.12054 6.59994,-6e-05" id="Fill-1"></path>
                    <path d="M5.39994,8.95482 C4.03194,8.67402 2.99994,7.45602 2.99994,5.99982 C2.99994,4.54362 4.03194,3.32562 5.39994,3.04542 L5.39994,-0.00018 C2.37234,0.30342 -6e-05,2.87802 -6e-05,5.99982 C-6e-05,9.12162 2.37234,11.69622 5.39994,11.99982 L5.39994,8.95482 Z" id="Fill-4"></path>
                    <g id="Group-9" transform="translate(6.600000, 1.800000)">
                        <path d="M4.04292,0.38604 L1.90092,2.54004 C2.21472,3.01644 2.40072,3.58644 2.40072,4.19964 C2.40072,5.65584 1.36812,6.87384 0.00012,7.15464 L0.00012,10.19964 C3.02772,9.89664 5.40012,7.32204 5.40012,4.19964 C5.40012,2.75424 4.89012,1.42584 4.04292,0.38604" id="Fill-7"></path>
                    </g>
                </g>
                <g id="Page-1" transform="translate(27.000000, 76.000000)" fill="#FFFFFF">
                    <path d="M16.2433789,0.341594642 C15.918171,-0.0347597195 15.3767471,-0.109908399 14.9672915,0.165025794 L6.25207395,6.02173507 C5.93629239,6.23435084 5.52860426,6.22518637 5.22107073,5.99974033 L2.1009604,3.70495627 C1.75100845,3.44774006 1.27615782,3.47584444 0.956841396,3.77277337 L0.305836504,4.37762859 C-0.0718052485,4.7289334 -0.104208207,5.33134476 0.234549995,5.72297325 L4.2189356,10.3345361 C4.89527371,11.118404 6.05706706,11.1843882 6.81293971,10.4823896 L16.1667901,1.79202525 C16.5744782,1.41322703 16.6080595,0.76377137 16.2433789,0.341594642" id="Fill-1"></path>
                </g>
                <path d="M18,27.9610738 C18,25.8952917 18.6900352,24.1929597 20.0701262,22.8540268 C21.4502173,21.515094 23.3141538,20.8456376 25.6619916,20.8456376 C28.346437,20.8456376 30.3744672,21.6319832 31.746143,23.204698 C32.8485328,24.471371 33.3997195,26.0313106 33.3997195,27.8845638 C33.3997195,29.9673482 32.7159956,31.6739307 31.3485273,33.0043624 C29.9810591,34.3347941 28.0897736,35 25.6746143,35 C23.5203258,35 21.7784078,34.4474328 20.4488079,33.3422819 C18.8162611,31.9735949 18,30.1798769 18,27.9610738 Z M23.1500701,27.9483221 C23.1500701,29.155487 23.3920032,30.0480955 23.8758766,30.6261745 C24.35975,31.2042534 24.9677383,31.4932886 25.6998597,31.4932886 C26.4403964,31.4932886 27.0483847,31.208504 27.5238429,30.6389262 C27.9993011,30.0693484 28.2370266,29.1554873 28.2370266,27.8973154 C28.2370266,26.7241552 27.9971973,25.850674 27.5175315,25.2768456 C27.0378658,24.7030173 26.4446038,24.4161074 25.7377279,24.4161074 C24.9887761,24.4161074 24.3702689,24.7072678 23.8821879,25.2895973 C23.3941069,25.8719268 23.1500701,26.7581596 23.1500701,27.9483221 Z M37.3099579,16 L42.5610098,16 L42.5610098,25.6402685 L46.398317,21.1516779 L52.7223001,21.1516779 L47.9130435,25.895302 L53,34.6939597 L47.2061711,34.6939597 L44.4922861,29.261745 L42.5610098,31.1744966 L42.5610098,34.6939597 L37.3099579,34.6939597 L37.3099579,16 Z" id="ok" fill="#BFD8F5"></path>
            </g>
        </g>
    </g>
</svg>