<?xml version="1.0" encoding="UTF-8"?>
<svg width="79px" height="93px" viewBox="0 0 79 93" version="1.1" xmlns="http://www.w3.org/2000/svg" xmlns:xlink="http://www.w3.org/1999/xlink">
    <!-- Generator: Sketch 52.1 (67048) - http://www.bohemiancoding.com/sketch -->
    <title>选择目标系统</title>
    <desc>Created with Sketch.</desc>
    <g id="Page-1" stroke="none" stroke-width="1" fill="none" fill-rule="evenodd">
        <g id="数据分发-copy" transform="translate(-1068.000000, -595.000000)">
            <g id="选择目标系统" transform="translate(1068.000000, 595.000000)">
                <g id="Group-20">
                    <circle id="Oval" fill="#CBDBE4" cx="38.5" cy="40.5" r="38.5"></circle>
                    <path d="M11.5,2.5 L11.5,79.5 L66.5,79.5 L66.5,2.5 L11.5,2.5 Z" id="Rectangle" stroke="#93BDEE" fill="#F0F0F0"></path>
                    <path d="M8.5,0.5 L8.5,77.5 L63.5,77.5 L63.5,0.5 L8.5,0.5 Z" id="Rectangle" stroke="#93BDEE" fill="#FFFFFF"></path>
                </g>
                <path d="M34.0728421,52 C31.8294737,52 30.0846316,52.6854737 28.8383158,54.0564211 C27.592,55.3650526 27,57.1098947 27,59.2909474 L29.4614737,59.2909474 C29.4614737,57.7642105 29.8042105,56.5802105 30.4896842,55.7077895 C31.2374737,54.6795789 32.3903158,54.1810526 33.9482105,54.1810526 C35.2568421,54.1810526 36.2850526,54.5237895 37.0016842,55.2715789 C37.6871579,55.9570526 38.0610526,56.9229474 38.0610526,58.1692632 C38.0610526,59.0416842 37.7494737,59.8517895 37.1263158,60.6307368 C36.9393684,60.88 36.5654737,61.2538947 36.0669474,61.7524211 C34.3844211,63.248 33.3562105,64.432 32.92,65.3667368 C32.5461053,66.1456842 32.3591579,67.0492632 32.3591579,68.0774737 L32.3591579,68.7941053 L34.8517895,68.7941053 L34.8517895,68.0774737 C34.8517895,67.2362105 35.0387368,66.4884211 35.4437895,65.8029474 C35.7553684,65.2421053 36.2227368,64.6812632 36.9082105,64.0892632 C38.2791579,62.8741053 39.1204211,62.064 39.432,61.6901053 C40.2109474,60.6618947 40.616,59.4467368 40.616,58.0446316 C40.616,56.1751579 40.024,54.7107368 38.8711579,53.6513684 C37.656,52.5296842 36.0669474,52 34.0728421,52 Z M33.6054737,70.9751579 C33.0757895,70.9751579 32.6395789,71.1309474 32.2656842,71.5048421 C31.8917895,71.8475789 31.736,72.2837895 31.736,72.8134737 C31.736,73.3431579 31.8917895,73.7793684 32.2656842,74.1532632 C32.6395789,74.496 33.0757895,74.6829474 33.6054737,74.6829474 C34.1351579,74.6829474 34.5713684,74.496 34.9452632,74.1532632 C35.3191579,73.8105263 35.5061053,73.3743158 35.5061053,72.8134737 C35.5061053,72.2837895 35.3191579,71.8475789 34.9764211,71.5048421 C34.6025263,71.1309474 34.1351579,70.9751579 33.6054737,70.9751579 Z" id="？" fill="#BFD8F5"></path>
                <path d="M65.9111328,47.9396973 L48,44 L49.8249512,60.4985352 L54.1828613,56.8942871 C60.6638184,63.8741048 65.5197754,69.0996094 68.7507324,72.5708008 C71.1071777,70.6038411 74.4197591,67.8248698 78.6884766,64.2338867 L61.8525391,51.4638672 L65.9111328,47.9396973 Z" id="Path-3" stroke="#BFD8F5" fill="#FFFFFF"></path>
                <polygon id="Star" fill="#BFD8F5" transform="translate(20.945172, 29.429940) rotate(43.000000) translate(-20.945172, -29.429940) " points="20.9451723 31.7880982 17.1063018 33.2688101 18.5870138 29.4299397 17.1063018 25.5910692 20.9451723 27.0717811 24.7840427 25.5910692 23.3033308 29.4299397 24.7840427 33.2688101"></polygon>
                <polygon id="Star" fill="#BFD8F5" transform="translate(47.995736, 29.995736) rotate(43.000000) translate(-47.995736, -29.995736) " points="47.9957358 33.0362888 43.0459883 34.9454833 44.9551827 29.9957358 43.0459883 25.0459883 47.9957358 26.9551827 52.9454833 25.0459883 51.0362888 29.9957358 52.9454833 34.9454833"></polygon>
                <polygon id="Star" fill="#9299AF" transform="translate(22.000000, 30.000000) rotate(43.000000) translate(-22.000000, -30.000000) " points="22 30 15.9378222 33.5 22 30 22 23 22 30 28.0621778 33.5"></polygon>
                <path d="M16,1 L16,11.6865962" id="Path-4" stroke="#93BDEE"></path>
                <path d="M22,1 L22,15.6526913" id="Path-5" stroke="#93BDEE"></path>
                <path d="M28,1 L28,20.2949282" id="Path-6" stroke="#93BDEE"></path>
                <path d="M18,41 C19.1045695,41 20,40.1045695 20,39 C20,37.8954305 19.1045695,37 18,37 C16.8954305,37 16,37.8954305 16,39 C16,40.1045695 16.8954305,41 18,41 Z" id="Oval-6" fill="#BFD8F5"></path>
                <g id="Group-7" transform="translate(23.000000, 68.000000)">
                    <circle id="Oval-5" fill="#E3AF7F" cx="12.5" cy="12.5" r="12.5"></circle>
                    <g id="Page-1" transform="translate(6.000000, 6.000000)" fill="#FFFFFF">
                        <path d="M12.4885913,0 L2.77222174,0 C2.48989565,0 2.26098261,0.235316206 2.26098261,0.52583004 L2.26098261,1.45256917 L11.0487,1.45256917 C11.3460043,1.45256917 11.5870696,1.70037747 11.5870696,2.00599802 L11.5870696,11.0395257 L12.4885913,11.0395257 C12.7709174,11.0395257 13.000113,10.8042095 13.000113,10.5136957 L13.000113,0.52583004 C13.000113,0.235316206 12.7709174,0 12.4885913,0" id="Fill-1"></path>
                        <g id="Group-6" transform="translate(0.000000, 2.324111)">
                            <path d="M4.58137815,7.50345846 C4.50377604,7.4473945 4.42803962,7.32997265 4.39491272,7.29684575 L2.33246476,5.21541663 C2.27993204,5.1628839 2.32196157,5.03564381 2.42631712,4.93128827 L2.87003361,4.48757177 C2.97438915,4.38321623 3.10162925,4.3411867 3.15416197,4.39371942 L5.19990853,6.43946598 L8.57115889,3.06821562 C8.67267483,2.96669968 8.83964147,2.96900267 8.94399701,3.07335821 L9.38771351,3.5170747 C9.49206905,3.62143025 9.49437204,3.78839689 9.3928561,3.88991282 L5.36419207,7.91857685 C5.26267614,8.02009279 5.0957095,8.0177898 4.99135395,7.91343426 L4.58137815,7.50345846 Z M0.511521739,2.90513835e-05 C0.229195652,2.90513835e-05 0,0.235345257 0,0.525568577 L0,10.5137247 C0,10.8042385 0.229195652,11.0395547 0.511521739,11.0395547 L10.2276087,11.0395547 C10.5099348,11.0395547 10.7391304,10.8042385 10.7391304,10.5137247 L10.7391304,0.525568577 C10.7391304,0.235345257 10.5099348,2.90513835e-05 10.2276087,2.90513835e-05 L0.511521739,2.90513835e-05 Z" id="Fill-4"></path>
                        </g>
                    </g>
                </g>
            </g>
        </g>
    </g>
</svg>