<?xml version="1.0" encoding="UTF-8"?>
<svg width="10px" height="41px" viewBox="0 0 10 41" version="1.1" xmlns="http://www.w3.org/2000/svg" xmlns:xlink="http://www.w3.org/1999/xlink">
    <!-- Generator: Sketch 51.2 (57519) - http://www.bohemiancoding.com/sketch -->
    <title>Group 36</title>
    <desc>Created with Sketch.</desc>
    <defs></defs>
    <g id="Page-1" stroke="none" stroke-width="1" fill="none" fill-rule="evenodd">
        <g id="客商风险分析" transform="translate(-1792.000000, -1451.000000)" fill="#44D3FF" fill-rule="nonzero">
            <g id="Group-36" transform="translate(1797.000000, 1452.000000)">
                <path id="Line-2-Copy-18" d="M0.25,39.5 L4.75,30.5 L-4.25,30.5 L0.25,39.5 Z M-0.25,0 L-0.25,2 L-0.25,2.5 L0.75,2.5 L0.75,2 L0.75,0 L0.75,-0.5 L-0.25,-0.5 L-0.25,0 Z M-0.25,4 L-0.25,6 L-0.25,6.5 L0.75,6.5 L0.75,6 L0.75,4 L0.75,3.5 L-0.25,3.5 L-0.25,4 Z M-0.25,8 L-0.25,10 L-0.25,10.5 L0.75,10.5 L0.75,10 L0.75,8 L0.75,7.5 L-0.25,7.5 L-0.25,8 Z M-0.25,12 L-0.25,14 L-0.25,14.5 L0.75,14.5 L0.75,14 L0.75,12 L0.75,11.5 L-0.25,11.5 L-0.25,12 Z M-0.25,16 L-0.25,18 L-0.25,18.5 L0.75,18.5 L0.75,18 L0.75,16 L0.75,15.5 L-0.25,15.5 L-0.25,16 Z M-0.25,20 L-0.25,22 L-0.25,22.5 L0.75,22.5 L0.75,22 L0.75,20 L0.75,19.5 L-0.25,19.5 L-0.25,20 Z M-0.25,24 L-0.25,26 L-0.25,26.5 L0.75,26.5 L0.75,26 L0.75,24 L0.75,23.5 L-0.25,23.5 L-0.25,24 Z M-0.25,28 L-0.25,30 L-0.25,30.5 L0.75,30.5 L0.75,30 L0.75,28 L0.75,27.5 L-0.25,27.5 L-0.25,28 Z"></path>
            </g>
        </g>
    </g>
</svg>