<?xml version="1.0" encoding="UTF-8"?>
<svg width="81px" height="81px" viewBox="0 0 81 81" version="1.1" xmlns="http://www.w3.org/2000/svg" xmlns:xlink="http://www.w3.org/1999/xlink">
    <!-- Generator: Sketch 52.1 (67048) - http://www.bohemiancoding.com/sketch -->
    <title>灵活发布</title>
    <desc>Created with Sketch.</desc>
    <g id="Page-1" stroke="none" stroke-width="1" fill="none" fill-rule="evenodd">
        <g id="数据模型--01-copy-5" transform="translate(-1236.000000, -698.000000)">
            <g id="user-1-copy" transform="translate(1211.000000, 673.000000)">
                <g id="personal-info" transform="translate(25.594864, 25.413007)">
                    <g id="灵活发布">
                        <circle id="avatar" fill="#56A2FD" opacity="0.06" cx="40" cy="40" r="40"></circle>
                        <circle id="avatar" fill="#56A2FD" opacity="0.15" cx="40" cy="40" r="32"></circle>
                        <g id="Group-24" transform="translate(22.000000, 22.000000)">
                            <path d="M32.0110204,23.462449 C31.6432653,23.462449 31.2893878,23.5040816 30.942449,23.5734694 L27.3342857,16.1767347 C28.1461224,14.8583673 28.6110204,13.3110204 28.6110204,11.6595918 C28.6179592,6.89959184 24.7253061,3 19.9583673,3 C15.1914286,3 11.2987755,6.89959184 11.2987755,11.6595918 C11.2987755,13.2832653 11.7497959,14.8097959 12.5408163,16.1142857 C12.5338776,16.1212245 12.5338776,16.1281633 12.5269388,16.135102 L8.90489796,23.5595918 C8.58571429,23.4971429 8.24571429,23.462449 7.90571429,23.462449 C5.16489796,23.462449 3,25.6273469 3,28.2987755 C3,30.9702041 5.24122449,33.135102 7.90571429,33.135102 C10.5771429,33.135102 12.8114286,30.9702041 12.8114286,28.2987755 C12.8114286,26.9665306 12.2702041,25.7522449 11.3889796,24.8779592 L14.5461224,18.4040816 C15.6771429,19.3130612 17.0371429,19.9444898 18.5220408,20.2012245 L18.5220408,27.5355102 C16.5028571,28.1391837 15.0595918,29.984898 15.0595918,32.1636735 C15.0595918,34.835102 17.3008163,37 19.9653061,37 C22.6297959,37 24.8710204,34.835102 24.8710204,32.1636735 C24.8710204,29.984898 23.4277551,28.1391837 21.4085714,27.5355102 L21.4085714,20.2012245 C22.8726531,19.9514286 24.2118367,19.3338776 25.3289796,18.4457143 L28.4861224,24.9265306 C27.6326531,25.8008163 27.1053061,26.9873469 27.1053061,28.2987755 C27.1053061,30.9702041 29.3465306,33.135102 32.0110204,33.135102 C34.682449,33.135102 36.9167347,30.9702041 36.9167347,28.2987755 C36.9236735,25.6273469 34.7587755,23.462449 32.0110204,23.462449 L32.0110204,23.462449 L32.0110204,23.462449 Z" id="Path" fill="#1E7BE2" opacity="0.203031994"></path>
                            <path d="M29.0110204,20.462449 C28.6432653,20.462449 28.2893878,20.5040816 27.942449,20.5734694 L24.3342857,13.1767347 C25.1461224,11.8583673 25.6110204,10.3110204 25.6110204,8.65959184 C25.6179592,3.89959184 21.7253061,0 16.9583673,0 C12.1914286,0 8.29877551,3.89959184 8.29877551,8.65959184 C8.29877551,10.2832653 8.74979592,11.8097959 9.54081633,13.1142857 C9.53387755,13.1212245 9.53387755,13.1281633 9.52693878,13.135102 L5.90489796,20.5595918 C5.58571429,20.4971429 5.24571429,20.462449 4.90571429,20.462449 C2.16489796,20.462449 -4.76063633e-13,22.6273469 -4.76063633e-13,25.2987755 C-4.76063633e-13,27.9702041 2.24122449,30.135102 4.90571429,30.135102 C7.57714286,30.135102 9.81142857,27.9702041 9.81142857,25.2987755 C9.81142857,23.9665306 9.27020408,22.7522449 8.38897959,21.8779592 L11.5461224,15.4040816 C12.6771429,16.3130612 14.0371429,16.9444898 15.5220408,17.2012245 L15.5220408,24.5355102 C13.5028571,25.1391837 12.0595918,26.984898 12.0595918,29.1636735 C12.0595918,31.835102 14.3008163,34 16.9653061,34 C19.6297959,34 21.8710204,31.835102 21.8710204,29.1636735 C21.8710204,26.984898 20.4277551,25.1391837 18.4085714,24.5355102 L18.4085714,17.2012245 C19.8726531,16.9514286 21.2118367,16.3338776 22.3289796,15.4457143 L25.4861224,21.9265306 C24.6326531,22.8008163 24.1053061,23.9873469 24.1053061,25.2987755 C24.1053061,27.9702041 26.3465306,30.135102 29.0110204,30.135102 C31.682449,30.135102 33.9167347,27.9702041 33.9167347,25.2987755 C33.9236735,22.6273469 31.7587755,20.462449 29.0110204,20.462449 L29.0110204,20.462449 L29.0110204,20.462449 Z M4.90571429,27.2485714 C3.82326531,27.2485714 2.88653061,26.3812245 2.88653061,25.2293878 C2.88653061,24.1469388 3.75387755,23.2102041 4.90571429,23.2102041 C6.05755102,23.2102041 6.92489796,24.1469388 6.92489796,25.2293878 C6.92489796,26.3118367 5.98816327,27.2485714 4.90571429,27.2485714 L4.90571429,27.2485714 L4.90571429,27.2485714 Z M18.977551,29.0942857 C18.977551,30.1767347 18.0408163,31.1134694 16.9583673,31.1134694 C15.8759184,31.1134694 14.9391837,30.2461224 14.9391837,29.0942857 C14.9391837,28.0118367 15.8065306,27.075102 16.9583673,27.075102 C18.1102041,27.075102 18.977551,28.0118367 18.977551,29.0942857 L18.977551,29.0942857 L18.977551,29.0942857 Z M16.9583673,14.4395918 C13.7110204,14.4395918 11.1089796,11.837551 11.1089796,8.66653061 C11.1089796,5.48857143 13.7804082,2.89346939 16.9583673,2.89346939 C20.1363265,2.89346939 22.8077551,5.4955102 22.8077551,8.66653061 C22.8077551,11.837551 20.2057143,14.4395918 16.9583673,14.4395918 L16.9583673,14.4395918 L16.9583673,14.4395918 Z M29.0110204,27.2485714 C27.9285714,27.2485714 26.9918367,26.3812245 26.9918367,25.2293878 C26.9918367,24.1469388 27.8591837,23.2102041 29.0110204,23.2102041 C30.1628571,23.2102041 31.0302041,24.1469388 31.0302041,25.2293878 C31.0371429,26.3118367 30.0934694,27.2485714 29.0110204,27.2485714 L29.0110204,27.2485714 L29.0110204,27.2485714 Z" id="network" fill="#3688E4"></path>
                        </g>
                    </g>
                </g>
            </g>
        </g>
    </g>
</svg>